<svg id="Layer_1" data-name="Layer 1" xmlns="http://www.w3.org/2000/svg" viewBox="0 0 1881.64 574.93"><defs><style>.cls-1{fill:#F2F2F2;}</style></defs><path class="cls-1" d="M1681.5,695.42q-21.51-19.5-43.39-38.33c-29.17-25.06-58.82-49.05-89-71.49-45.33-33.67-91.95-63.9-140.11-89.17A761.59,761.59,0,0,0,1310.43,453h-.06a20,20,0,0,0-5.27-1.09c-.49,0-1-.06-1.49-.06h-.09c-.19,0-.37.12-.58.12a3.07,3.07,0,0,0-.52.06,5.07,5.07,0,0,0-.7.06,12.34,12.34,0,0,0-1.46.24,4,4,0,0,0-.88.19c-.58.12-1.16.3-1.74.48s-1.16.4-1.73.64c-4.63,1.56-9.05,4-12.24,8.1q-45.76,58.82-94,113.87-86.76-84.49-177.92-163.28v0a26.9,26.9,0,0,0-4-2.86.23.23,0,0,1-.12-.06c-.49-.28-1-.55-1.49-.8l-.55-.27c-.7-.37-1.4-.67-2.13-1-.52-.22-1-.46-1.52-.64a29.36,29.36,0,0,0-9.38-1.68A30.46,30.46,0,0,0,967.86,418Q903,508.14,838,598.21q-3.84,5.34-7.7,10.68Q819,596.52,807.59,584.17c-34.25-37.48-68.23-75.87-100.41-116.45s-62.62-83.33-89.78-129.61a.63.63,0,0,0-.12-.18,15.33,15.33,0,0,0-.88-1.37.1.1,0,0,0,0-.06h0c-.19-.3-.4-.61-.61-.88a2.68,2.68,0,0,0-.25-.37.41.41,0,0,0-.09-.12c-.67-.88-1.34-1.7-2-2.5l-.06-.06c-.49-.51-1-.91-1.52-1.4a.8.8,0,0,0-.18-.15c-.16-.15-.34-.3-.49-.46a.7.7,0,0,1-.21-.21c-.25-.21-.49-.4-.7-.61,0,0,0,0,0,0a17,17,0,0,0-1.52-1.16s0-.06-.06-.06a18.83,18.83,0,0,0-2-1.15c-.06,0-.09-.06-.15-.06a22.38,22.38,0,0,0-3-1.37.19.19,0,0,0-.12-.07c-.74-.24-1.44-.45-2.14-.63a14.76,14.76,0,0,0-1.67-.31c-.49-.06-1-.12-1.52-.15a.4.4,0,0,0-.19,0c-.42,0-.85-.18-1.3-.18-.19,0-.4.12-.61.12a17.84,17.84,0,0,0-3.75.48c-.61.16-1.19.31-1.79.49s-1.19.43-1.8.67h0c-.46.18-.85.46-1.31.67s-1.25.67-1.86,1a0,0,0,0,1,0,0c-.61.36-1.18.76-1.76,1.18a20.47,20.47,0,0,0-1.77,1.37,19.53,19.53,0,0,0-1.67,1.62l0,0c-18.45,19.7-37.36,38.63-56.66,57.11s-38.94,36.39-58.79,54-39.95,35-60.1,52.16C364.25,530,323.6,563.9,283.75,599c-59.82,52.58-117.88,107.68-170.49,170.65Q57.67,836.1,0,899.46H1881.64C1817.1,827.74,1751.09,758.47,1681.5,695.42ZM670.28,648.75l-17.53-69.66,2.56,52.55L600.53,387.8l19.06,286.55c-104.88-41.43-218.72-12.66-326,19.61-24.17,7.31-48.28,15.13-72.39,22.68L389.33,564.38,203.77,702.24C260.06,646.37,320,595.32,378.71,545.54c64.18-54.41,130.06-110.85,191.2-173.24L598.13,547l-9.47-193.72c.91-1,1.89-1.86,2.8-2.84a6.94,6.94,0,0,1,5.09-2.43c2.55,0,5,1.61,6.63,4.41,47.74,81.32,105.59,152.2,163.22,216.87C734.89,597.05,702.8,623.9,670.28,648.75Zm396-59.13c-30.94,32.24-55.47,78.55-97.52,86.89-13.55,2.68-26.94.83-39.82-3.92L988,466,912.66,664.82c-14.58-8.25-28.22-19.45-40.25-31.42-2.5-2.46-5-5-7.43-7.58l52.12-75.68-39.48,30.65L982.17,435.72a13.2,13.2,0,0,1,18.69-2L968.71,597.63l49.78-148.42q42.42,37,83.9,75.38c-.76-.39-1.52-.76-2.28-1.16-14.37-7.42-28.4-16.28-29.29-16.83.67.91,11.66,15.4,23.57,29,5.08,5.94,10.32,11.6,14.73,16.26C1094.51,564,1079.56,575.8,1066.32,589.62Zm415.09,8.5-15.35-13.86,3.78,20.13c-14.71-2.35-28.68-8.1-42.68-14.65a53,53,0,0,0-8.19-2.92l-104.49-97,67.86,84.52-23.78-12.67,21.34,27.77c-32,6.91-63.78,15.68-95.35,25.57-33.7,10.6-67.19,22.35-100.68,34-5.51,1.92-11,3.78-16.54,5.69L1226.4,591l-84.27,66.83c46-47.71,92.49-101.47,140-161.54l54.38,46.27-40.86-63.26c.18-.28.4-.52.61-.79a9.93,9.93,0,0,1,7.28-3.17,6.35,6.35,0,0,1,2.19.34c62.47,22.28,125.62,55.5,191.93,100.59C1492.16,583.44,1486.68,590.63,1481.41,598.12Z" transform="translate(0 -324.54)"/></svg>